IKResults
version=1
nRows=13
nColumns=40
inDegrees=yes

Units are S.I. units (second, meters, Newtons, ...)
Angles are in degrees.

endheader
time	pelvis_tilt	pelvis_list	pelvis_rotation	pelvis_tx	pelvis_ty	pelvis_tz	hip_flexion_r	hip_adduction_r	hip_rotation_r	knee_angle_r	knee_angle_r_beta	ankle_angle_r	subtalar_angle_r	mtp_angle_r	hip_flexion_l	hip_adduction_l	hip_rotation_l	knee_angle_l	knee_angle_l_beta	ankle_angle_l	subtalar_angle_l	mtp_angle_l	lumbar_extension	lumbar_bending	lumbar_rotation	arm_flex_r	arm_add_r	arm_rot_r	elbow_flex_r	pro_sup_r	wrist_flex_r	wrist_dev_r	arm_flex_l	arm_add_l	arm_rot_l	elbow_flex_l	pro_sup_l	wrist_flex_l	wrist_dev_l
      0.00000000	     -2.52892794	     -4.33929881	      0.18321779	     -0.43088321	      0.92110621	      1.44586514	     16.88784746	      4.71483486	    -10.48770916	    -18.06138003	     -0.31523055	      2.83096344	    -13.02011674	      2.21676915	     -3.74537220	      4.06305382	      0.80984171	    -32.14687605	     -0.56106883	      5.64475723	     17.13719958	      2.98338741	     -0.20690582	      5.74837843	     -4.17447883	     -6.95430482	     -9.52050948	     -0.47200508	     22.27059096	     89.95437384	      0.00000000	      0.00000000	      0.53090866	      7.27685378	      4.56791416	     43.98396396	     89.95437384	      0.00000000	      0.00000000
      0.01000000	     -2.23442817	     -4.01685727	      0.16367969	     -0.42481115	      0.92200978	      1.44701243	     16.14388711	      4.40825759	    -10.63018755	    -18.10058917	     -0.31591488	      3.22127636	    -12.71603916	      2.15436062	     -3.28583064	      3.82327922	      0.90661307	    -33.85894344	     -0.59095004	      4.64155163	     17.20747760	      3.06277283	     -0.60735769	      5.44269220	     -3.83313281	     -6.88846710	     -9.54052170	     -0.30258626	     22.25507914	     89.95437384	      0.00000000	      0.00000000	      0.66340735	      7.19031359	      4.63164404	     42.84452260	     89.95437384	      0.00000000	      0.00000000
      0.02000000	     -1.97941284	     -3.85459177	      0.23067752	     -0.41869432	      0.92280880	      1.44800579	     15.43006381	      4.24200040	    -10.79791432	    -18.11114738	     -0.31609915	      3.68187601	    -12.34783376	      2.04855169	     -2.68271724	      3.79285334	      0.98812581	    -35.64952530	     -0.62220159	      3.18071654	     17.36022548	      3.15851830	     -0.90997897	      5.32510436	     -3.56599039	     -6.82859299	     -9.60560305	     -0.07815090	     22.20513022	     89.95437384	      0.00000000	      0.00000000	      0.86131502	      7.05372476	      4.65786566	     41.46315061	     89.95437384	      0.00000000	      0.00000000
      0.03000000	     -1.79458852	     -3.71983549	      0.25857110	     -0.41266549	      0.92338555	      1.44921593	     14.75029829	      4.14147031	    -11.00038496	    -18.03737466	     -0.31481158	      4.06052874	    -11.97481881	      1.94293956	     -2.02545371	      3.83013088	      1.13724413	    -37.33568321	     -0.65163060	      2.28065849	     17.55770453	      3.22135876	     -1.11810876	      5.20466365	     -3.28197840	     -6.77040467	     -9.65311481	      0.16294591	     22.17433821	     89.95437384	      0.00000000	      0.00000000	      1.01916426	      6.96521096	      4.69218738	     40.11005270	     89.95437384	      0.00000000	      0.00000000
      0.04000000	     -1.94701215	     -4.02943551	      0.55137145	     -0.40694094	      0.92335548	      1.45031879	     14.37995924	      4.48759020	    -11.46014358	    -17.80251139	     -0.31071244	      4.42095253	    -11.36457990	      1.80302816	     -0.71587836	      4.47035627	      1.18534799	    -39.31344295	     -0.68614902	      1.79299279	     17.73274534	      3.39581004	     -0.91659872	      5.55681949	     -3.24622872	     -6.89763852	     -9.82950645	      0.57879321	     22.44948854	     89.95437384	      0.00000000	      0.00000000	      1.27844258	      6.78529840	      4.84097132	     38.39315568	     89.95437384	      0.00000000	      0.00000000
      0.05000000	     -1.66041327	     -3.82230887	      0.49528348	     -0.40099680	      0.92389408	      1.45159833	     13.63795619	      4.31377601	    -11.71892998	    -17.80263902	     -0.31071467	      4.78026221	    -11.26897241	      1.74083558	     -0.19768820	      4.49299781	      1.59488204	    -40.70408613	     -0.71042032	      2.21962755	     18.05055941	      3.43893122	     -1.28733684	      5.33117898	     -2.89317052	     -6.67774689	     -9.83467893	      0.81920878	     22.23412295	     89.95437384	      0.00000000	      0.00000000	      1.34119474	      6.76584247	      4.94181000	     37.17681707	     89.95437384	      0.00000000	      0.00000000
      0.06000000	     -1.63801305	     -4.10188518	      0.64092939	     -0.39544907	      0.92403889	      1.45284519	     13.07469844	      4.71755474	    -11.89796486	    -17.54379950	     -0.30619706	      5.15208543	    -10.77039990	      1.59839406	      0.82972547	      5.08123428	      1.75916487	    -42.25700689	     -0.73752390	      3.06605119	     18.26029636	      3.94725514	     -1.30657521	      5.64233804	     -2.70191528	     -6.58581638	     -9.99273964	      1.34037640	     22.22613478	     89.95437384	      0.00000000	      0.00000000	      1.72913575	      6.54109910	      5.34855415	     35.20255820	     89.95437384	      0.00000000	      0.00000000
      0.07000000	     -1.38169000	     -3.94055366	      0.66239218	     -0.38965818	      0.92452575	      1.45395660	     12.32263804	      4.59972893	    -12.13872030	    -17.44886629	     -0.30454017	      5.49067349	    -10.69409507	      1.55727326	      1.45815140	      5.21380963	      2.22560007	    -43.40485459	     -0.75755762	      3.89953841	     18.51304629	      4.16894236	     -1.61960550	      5.45252581	     -2.47914675	     -6.34162243	    -10.01534550	      1.57905316	     22.05094478	     89.95437384	      0.00000000	      0.00000000	      1.80575777	      6.54437543	      5.50353366	     33.81905939	     89.95437384	      0.00000000	      0.00000000
      0.08000000	     -1.16224818	     -3.90633488	      0.71617127	     -0.38386080	      0.92501639	      1.45508350	     11.59174135	      4.64171276	    -12.31421081	    -17.31355611	     -0.30217856	      5.88107982	    -10.63140474	      1.49624108	      2.05538850	      5.44026648	      2.52306039	    -44.30682862	     -0.77330004	      4.77705665	     18.82263576	      4.43704429	     -1.86555631	      5.40197825	     -2.27536223	     -6.08871332	    -10.05302826	      1.82782487	     21.82779491	     89.95437384	      0.00000000	      0.00000000	      1.90828720	      6.52413190	      5.69261433	     32.26876431	     89.95437384	      0.00000000	      0.00000000
      0.09000000	     -0.95891142	     -3.91984577	      0.81315971	     -0.37828682	      0.92553386	      1.45621871	     10.84014971	      4.76221694	    -12.40338287	    -17.07212303	     -0.29796476	      6.22892926	    -10.47224160	      1.43191621	      2.71431147	      5.71202160	      2.71589061	    -45.09639474	     -0.78708057	      5.90921073	     18.90179932	      4.81901057	     -2.10811892	      5.39008742	     -2.10356380	     -5.85784773	    -10.07958456	      2.09426862	     21.70094672	     89.95437384	      0.00000000	      0.00000000	      2.12745173	      6.49115404	      5.96553128	     30.49807381	     89.95437384	      0.00000000	      0.00000000
      0.10000000	     -0.79019958	     -3.96863122	      0.90687688	     -0.37266286	      0.92605415	      1.45738188	     10.09786208	      4.94065443	    -12.44829715	    -16.79067752	     -0.29305261	      6.53599993	    -10.32626248	      1.38903804	      3.35444105	      6.00908799	      2.87027318	    -45.62345873	     -0.79627957	      7.04002049	     18.93104557	      5.37178726	     -2.26996412	      5.40745082	     -1.94412023	     -5.62996730	    -10.13441775	      2.33888640	     21.50723150	     89.95437384	      0.00000000	      0.00000000	      2.34237283	      6.46310961	      6.30339372	     28.66825745	     89.95437384	      0.00000000	      0.00000000
      0.11000000	     -0.63735258	     -3.94383598	      1.02266983	     -0.36713180	      0.92672003	      1.45792235	      9.30584139	      5.07279180	    -12.06091679	    -16.38442955	     -0.28596224	      6.67213625	    -10.49396695	      2.28644408	      3.94410302	      5.80861333	      2.42499359	    -46.04258772	     -0.80359475	      9.22741782	     18.72430742	     15.91997996	     -2.43964300	      5.40773759	     -1.82468578	     -5.62300526	    -10.41945002	      3.56512760	     21.79632705	     89.95437384	      0.00000000	      0.00000000	      2.61477845	      6.19352012	      7.49841292	     26.70709840	     89.95437384	      0.00000000	      0.00000000
      0.12000000	     -0.52160727	     -3.81808990	      1.06564991	     -0.36167490	      0.92724005	      1.45902498	      8.69238181	      5.03071144	    -12.09572188	    -16.21601658	     -0.28302288	      6.97642623	    -10.35481683	      2.25123548	      4.58395195	      5.87177758	      2.60501690	    -46.14909802	     -0.80545371	     10.01172605	     18.81674883	     15.91940606	     -2.58286918	      5.21891401	     -1.72350439	     -5.27886880	    -10.36260393	      3.61039646	     21.52045348	     89.95437384	      0.00000000	      0.00000000	      2.55264436	      6.34360171	      7.61660348	     25.29555777	     89.95437384	      0.00000000	      0.00000000
